<svg width="21" height="21" viewBox="0 0 21 21" fill="none" xmlns="http://www.w3.org/2000/svg">
<path fill-rule="evenodd" clip-rule="evenodd" d="M14.1859 15.7913C12.8654 16.9155 11.1537 17.594 9.28359 17.594C5.10463 17.594 1.71692 14.2063 1.71692 10.0273C1.71692 5.84835 5.10463 2.46064 9.28359 2.46064C13.4625 2.46064 16.8503 5.84835 16.8503 10.0273C16.8503 11.8861 16.18 13.5884 15.068 14.9056L18.7 18.5376L17.8161 19.4215L14.1859 15.7913ZM15.6003 10.0273C15.6003 13.5159 12.7722 16.344 9.28359 16.344C5.79499 16.344 2.96692 13.5159 2.96692 10.0273C2.96692 6.53871 5.79499 3.71064 9.28359 3.71064C12.7722 3.71064 15.6003 6.53871 15.6003 10.0273Z" fill="white"/>
</svg>
